<?xml version="1.0" encoding="UTF-8" standalone="no"?>
<!-- Generator: Adobe Illustrator 16.0.0, SVG Export Plug-In . SVG Version: 6.00 Build 0)  -->

<svg
   xmlns:dc="http://purl.org/dc/elements/1.1/"
   xmlns:cc="http://creativecommons.org/ns#"
   xmlns:rdf="http://www.w3.org/1999/02/22-rdf-syntax-ns#"
   xmlns:svg="http://www.w3.org/2000/svg"
   xmlns="http://www.w3.org/2000/svg"
   xmlns:xlink="http://www.w3.org/1999/xlink"
   xmlns:sodipodi="http://sodipodi.sourceforge.net/DTD/sodipodi-0.dtd"
   xmlns:inkscape="http://www.inkscape.org/namespaces/inkscape"
   version="1.1"
   id="Ebene_1"
   x="0px"
   y="0px"
   width="1701px"
   height="1134px"
   viewBox="0 0 1701 1134"
   enable-background="new 0 0 1701 1134"
   xml:space="preserve"
   sodipodi:docname="Chassis_zweiteEbene.svg"
   inkscape:version="0.92.2 (5c3e80d, 2017-08-06)"><metadata
     id="metadata298"><rdf:RDF><cc:Work
         rdf:about=""><dc:format>image/svg+xml</dc:format><dc:type
           rdf:resource="http://purl.org/dc/dcmitype/StillImage" /></cc:Work></rdf:RDF></metadata><defs
     id="defs296"><marker
       inkscape:stockid="Arrow1Lstart"
       orient="auto"
       refY="0.0"
       refX="0.0"
       id="Arrow1Lstart"
       style="overflow:visible"
       inkscape:isstock="true"><path
         id="path4802"
         d="M 0.0,0.0 L 5.0,-5.0 L -12.5,0.0 L 5.0,5.0 L 0.0,0.0 z "
         style="fill-rule:evenodd;stroke:#000000;stroke-width:1.0pt"
         transform="scale(0.8) translate(12.5,0)" /></marker></defs><sodipodi:namedview
     pagecolor="#ffffff"
     bordercolor="#666666"
     borderopacity="1"
     objecttolerance="10"
     gridtolerance="10"
     guidetolerance="10"
     inkscape:pageopacity="0"
     inkscape:pageshadow="2"
     inkscape:window-width="1920"
     inkscape:window-height="1017"
     id="namedview294"
     showgrid="false"
     inkscape:zoom="0.74779541"
     inkscape:cx="883.68259"
     inkscape:cy="567"
     inkscape:window-x="1912"
     inkscape:window-y="-8"
     inkscape:window-maximized="1"
     inkscape:current-layer="g291" /><g
     id="g291"><defs
       id="defs156"><polyline
         id="SVGID_1_"
         points="0,1134 0,-566.82 2551.14,-566.82 2551.14,1134 0,1134   " /></defs><clipPath
       id="SVGID_2_"><use
         xlink:href="#SVGID_1_"
         overflow="visible"
         id="use158"
         style="overflow:visible"
         x="0"
         y="0"
         width="100%"
         height="100%" /></clipPath><path
       clip-path="url(#SVGID_2_)"
       stroke-miterlimit="10"
       d="m 175.32,313.651 c 0,-2.436 -1.973,-4.411 -4.409,-4.411 -2.436,0 -4.41,1.973 -4.411,4.409 0,2.436 1.974,4.41 4.409,4.411 2.435,10e-4 4.41,-1.974 4.411,-4.409"
       id="path161"
       inkscape:connector-curvature="0"
       style="fill:none;fill-opacity:1;stroke:#ff0000;stroke-width:0.37795275;stroke-linecap:round;stroke-linejoin:round;stroke-miterlimit:10;stroke-dasharray:none;stroke-opacity:1" /><path
       clip-path="url(#SVGID_2_)"
       stroke-miterlimit="10"
       d="m 175.32,357.751 c 0,-2.436 -1.973,-4.411 -4.409,-4.411 -2.436,0 -4.41,1.974 -4.411,4.409 -0.001,2.435 1.974,4.411 4.409,4.411 2.435,0 4.41,-1.973 4.411,-4.409"
       id="path163"
       inkscape:connector-curvature="0"
       style="fill:none;fill-opacity:1;stroke:#ff0000;stroke-width:0.37795275;stroke-linecap:round;stroke-linejoin:round;stroke-miterlimit:10;stroke-dasharray:none;stroke-opacity:1" /><path
       clip-path="url(#SVGID_2_)"
       stroke-miterlimit="10"
       d="m 277.02,603.449 c 0,2.635 2.135,4.771 4.77,4.771 2.634,10e-4 4.77,-2.135 4.771,-4.77 0,-2.634 -2.135,-4.77 -4.77,-4.771 -2.635,10e-4 -4.77,2.136 -4.771,4.77"
       id="path165"
       inkscape:connector-curvature="0"
       style="fill:none;fill-opacity:1;stroke:#ff0000;stroke-width:0.37795275;stroke-linecap:round;stroke-linejoin:round;stroke-miterlimit:10;stroke-dasharray:none;stroke-opacity:1" /><path
       clip-path="url(#SVGID_2_)"
       stroke-miterlimit="10"
       d="m 73.08,64.709 c 0,2.634 2.135,4.77 4.77,4.771 2.635,10e-4 4.77,-2.135 4.771,-4.77 0,-2.634 -2.135,-4.77 -4.77,-4.771 -2.635,0 -4.771,2.136 -4.771,4.77"
       id="path167"
       inkscape:connector-curvature="0"
       style="fill:none;fill-opacity:1;stroke:#ff0000;stroke-width:0.37795275;stroke-linecap:round;stroke-linejoin:round;stroke-miterlimit:10;stroke-dasharray:none;stroke-opacity:1" /><path
       clip-path="url(#SVGID_2_)"
       stroke-miterlimit="10"
       d="m 277.02,64.709 c 0,2.634 2.135,4.77 4.77,4.771 2.635,10e-4 4.77,-2.135 4.771,-4.77 0,-2.634 -2.135,-4.77 -4.77,-4.771 -2.635,-10e-4 -4.77,2.136 -4.771,4.77"
       id="path169"
       inkscape:connector-curvature="0"
       style="fill:none;fill-opacity:1;stroke:#ff0000;stroke-width:0.37795275;stroke-linecap:round;stroke-linejoin:round;stroke-miterlimit:10;stroke-dasharray:none;stroke-opacity:1" /><path
       clip-path="url(#SVGID_2_)"
       stroke-miterlimit="10"
       d="m 73.08,603.449 c 0,2.635 2.135,4.771 4.77,4.771 2.634,10e-4 4.77,-2.135 4.771,-4.77 0,-2.634 -2.135,-4.77 -4.77,-4.771 -2.635,10e-4 -4.771,2.136 -4.771,4.77"
       id="path171"
       inkscape:connector-curvature="0"
       style="fill:none;fill-opacity:1;stroke:#ff0000;stroke-width:0.37795275;stroke-linecap:round;stroke-linejoin:round;stroke-miterlimit:10;stroke-dasharray:none;stroke-opacity:1" /><polyline
       clip-path="url(#SVGID_2_)"
       stroke-miterlimit="10"
       points="   66.42,617.58 293.22,617.58 293.22,50.58 66.42,50.58 66.42,617.58  "
       id="polyline173"
       style="fill:none;fill-opacity:1;stroke:#ff0000;stroke-width:0.37795275;stroke-linecap:round;stroke-linejoin:round;stroke-miterlimit:10;stroke-dasharray:none;stroke-opacity:1" /><path
       clip-path="url(#SVGID_2_)"
       stroke-miterlimit="10"
       d="m 366.932,83.16 c -6.213,-10e-4 -11.251,5.034 -11.252,11.248 -0.001,6.213 5.035,11.251 11.248,11.252 6.213,0.001 11.251,-5.035 11.252,-11.248 10e-4,-6.213 -5.034,-11.251 -11.248,-11.252"
       id="path175"
       inkscape:connector-curvature="0"
       style="fill:none;fill-opacity:1;stroke:#ff0000;stroke-width:0.37795275;stroke-linecap:round;stroke-linejoin:round;stroke-miterlimit:10;stroke-dasharray:none;stroke-opacity:1" /><line
       clip-path="url(#SVGID_2_)"
       stroke-miterlimit="10"
       x1="324.54001"
       y1="136.98"
       x2="471.95999"
       y2="136.98"
       id="line177"
       style="fill:none;fill-opacity:1;stroke:#ff0000;stroke-width:0.37795275;stroke-linecap:round;stroke-linejoin:round;stroke-miterlimit:10;stroke-dasharray:none;stroke-opacity:1" /><polyline
       clip-path="url(#SVGID_2_)"
       stroke-miterlimit="10"
       points="   471.96,52.02 324.54,52.02 324.54,136.98  "
       id="polyline179"
       style="fill:none;fill-opacity:1;stroke:#ff0000;stroke-width:0.37795275;stroke-linecap:round;stroke-linejoin:round;stroke-miterlimit:10;stroke-dasharray:none;stroke-opacity:1" /><path
       clip-path="url(#SVGID_2_)"
       stroke-miterlimit="10"
       d="m 349.831,104.58 c -2.634,0 -4.771,2.135 -4.771,4.769 0,2.634 2.135,4.771 4.769,4.771 2.634,0 4.771,-2.135 4.771,-4.769 0,-2.634 -2.135,-4.77 -4.769,-4.771"
       id="path181"
       inkscape:connector-curvature="0"
       style="fill:none;fill-opacity:1;stroke:#ff0000;stroke-width:0.37795275;stroke-linecap:round;stroke-linejoin:round;stroke-miterlimit:10;stroke-dasharray:none;stroke-opacity:1" /><path
       clip-path="url(#SVGID_2_)"
       stroke-miterlimit="10"
       d="m 349.471,69.3 c -2.634,0 -4.77,2.135 -4.771,4.77 0,2.634 2.134,4.771 4.769,4.771 2.634,0.001 4.77,-2.134 4.771,-4.769 10e-4,-2.635 -2.135,-4.771 -4.769,-4.772"
       id="path183"
       inkscape:connector-curvature="0"
       style="fill:none;fill-opacity:1;stroke:#ff0000;stroke-width:0.37795275;stroke-linecap:round;stroke-linejoin:round;stroke-miterlimit:10;stroke-dasharray:none;stroke-opacity:1" /><path
       clip-path="url(#SVGID_2_)"
       stroke-miterlimit="10"
       d="m 384.211,74.88 c -2.634,0 -4.771,2.135 -4.771,4.769 0,2.634 2.135,4.771 4.769,4.771 2.634,0 4.771,-2.135 4.771,-4.769 0,-2.634 -2.135,-4.771 -4.769,-4.771"
       id="path185"
       inkscape:connector-curvature="0"
       style="fill:none;fill-opacity:1;stroke:#ff0000;stroke-width:0.37795275;stroke-linecap:round;stroke-linejoin:round;stroke-miterlimit:10;stroke-dasharray:none;stroke-opacity:1" /><path
       clip-path="url(#SVGID_2_)"
       stroke-miterlimit="10"
       d="m 384.571,110.16 c -2.634,0 -4.771,2.135 -4.771,4.769 0,2.634 2.135,4.77 4.769,4.771 2.635,0 4.771,-2.135 4.771,-4.77 0,-2.634 -2.134,-4.769 -4.769,-4.77"
       id="path187"
       inkscape:connector-curvature="0"
       style="fill:none;fill-opacity:1;stroke:#ff0000;stroke-width:0.37795275;stroke-linecap:round;stroke-linejoin:round;stroke-miterlimit:10;stroke-dasharray:none;stroke-opacity:1" /><path
       clip-path="url(#SVGID_2_)"
       stroke-miterlimit="10"
       d="m 430.831,61.38 c -2.634,0 -4.771,2.135 -4.771,4.769 0,2.634 2.135,4.771 4.769,4.771 2.634,0 4.771,-2.135 4.771,-4.769 0,-2.634 -2.135,-4.771 -4.769,-4.771"
       id="path189"
       inkscape:connector-curvature="0"
       style="fill:none;fill-opacity:1;stroke:#ff0000;stroke-width:0.37795275;stroke-linecap:round;stroke-linejoin:round;stroke-miterlimit:10;stroke-dasharray:none;stroke-opacity:1" /><path
       clip-path="url(#SVGID_2_)"
       stroke-miterlimit="10"
       d="m 430.831,118.08 c -2.634,0 -4.771,2.135 -4.771,4.769 0,2.634 2.135,4.771 4.769,4.771 2.634,0 4.771,-2.135 4.771,-4.769 10e-4,-2.635 -2.135,-4.77 -4.769,-4.771"
       id="path191"
       inkscape:connector-curvature="0"
       style="fill:none;fill-opacity:1;stroke:#ff0000;stroke-width:0.37795275;stroke-linecap:round;stroke-linejoin:round;stroke-miterlimit:10;stroke-dasharray:none;stroke-opacity:1" /><line
       clip-path="url(#SVGID_2_)"
       stroke-miterlimit="10"
       x1="471.95999"
       y1="52.02"
       x2="471.95999"
       y2="136.98"
       id="line193"
       style="fill:none;fill-opacity:1;stroke:#ff0000;stroke-width:0.37795275;stroke-linecap:round;stroke-linejoin:round;stroke-miterlimit:10;stroke-dasharray:none;stroke-opacity:1" /><line
       clip-path="url(#SVGID_2_)"
       stroke-miterlimit="10"
       x1="693"
       y1="136.98"
       x2="693"
       y2="533.88"
       id="line195"
       style="fill:none;fill-opacity:1;stroke:#ff0000;stroke-width:0.37795275;stroke-linecap:round;stroke-linejoin:round;stroke-miterlimit:10;stroke-dasharray:none;stroke-opacity:1" /><polyline
       clip-path="url(#SVGID_2_)"
       stroke-miterlimit="10"
       points="   693,136.98 473.4,136.98 473.4,52.02  "
       id="polyline197"
       style="fill:none;fill-opacity:1;stroke:#ff0000;stroke-width:0.37795275;stroke-linecap:round;stroke-linejoin:round;stroke-miterlimit:10;stroke-dasharray:none;stroke-opacity:1" /><path
       clip-path="url(#SVGID_2_)"
       stroke-miterlimit="10"
       d="m 652.411,69.84 c -2.635,0 -4.771,2.135 -4.771,4.769 0,2.634 2.135,4.771 4.769,4.771 2.634,0 4.771,-2.135 4.771,-4.769 0,-2.634 -2.135,-4.771 -4.769,-4.771"
       id="path199"
       inkscape:connector-curvature="0"
       style="fill:none;fill-opacity:1;stroke:#ff0000;stroke-width:0.37795275;stroke-linecap:round;stroke-linejoin:round;stroke-miterlimit:10;stroke-dasharray:none;stroke-opacity:1" /><path
       clip-path="url(#SVGID_2_)"
       stroke-miterlimit="10"
       d="m 652.411,109.62 c -2.635,0 -4.771,2.135 -4.771,4.769 0,2.634 2.135,4.771 4.769,4.771 2.634,0 4.771,-2.135 4.771,-4.769 0.001,-2.635 -2.135,-4.77 -4.769,-4.771"
       id="path201"
       inkscape:connector-curvature="0"
       style="fill:none;fill-opacity:1;stroke:#ff0000;stroke-width:0.37795275;stroke-linecap:round;stroke-linejoin:round;stroke-miterlimit:10;stroke-dasharray:none;stroke-opacity:1" /><path
       clip-path="url(#SVGID_2_)"
       stroke-miterlimit="10"
       d="m 581.851,118.08 c -2.635,0 -4.771,2.135 -4.771,4.769 0,2.634 2.135,4.771 4.769,4.771 2.634,0 4.771,-2.135 4.771,-4.769 10e-4,-2.635 -2.135,-4.77 -4.769,-4.771"
       id="path203"
       inkscape:connector-curvature="0"
       style="fill:none;fill-opacity:1;stroke:#ff0000;stroke-width:0.37795275;stroke-linecap:round;stroke-linejoin:round;stroke-miterlimit:10;stroke-dasharray:none;stroke-opacity:1" /><path
       clip-path="url(#SVGID_2_)"
       stroke-miterlimit="10"
       d="m 581.851,61.38 c -2.635,0 -4.771,2.135 -4.771,4.769 0,2.634 2.135,4.771 4.769,4.771 2.634,0 4.771,-2.135 4.771,-4.769 0,-2.634 -2.135,-4.771 -4.769,-4.771"
       id="path205"
       inkscape:connector-curvature="0"
       style="fill:none;fill-opacity:1;stroke:#ff0000;stroke-width:0.37795275;stroke-linecap:round;stroke-linejoin:round;stroke-miterlimit:10;stroke-dasharray:none;stroke-opacity:1" /><path
       clip-path="url(#SVGID_2_)"
       stroke-miterlimit="10"
       d="m 508.231,61.38 c -2.634,0 -4.771,2.135 -4.771,4.769 0,2.634 2.135,4.771 4.769,4.771 2.634,0 4.771,-2.135 4.771,-4.769 0,-2.634 -2.135,-4.771 -4.769,-4.771"
       id="path207"
       inkscape:connector-curvature="0"
       style="fill:none;fill-opacity:1;stroke:#ff0000;stroke-width:0.37795275;stroke-linecap:round;stroke-linejoin:round;stroke-miterlimit:10;stroke-dasharray:none;stroke-opacity:1" /><path
       clip-path="url(#SVGID_2_)"
       stroke-miterlimit="10"
       d="m 508.231,118.08 c -2.634,0 -4.771,2.135 -4.771,4.769 0,2.634 2.135,4.771 4.769,4.771 2.634,0 4.771,-2.135 4.771,-4.769 0,-2.635 -2.135,-4.77 -4.769,-4.771"
       id="path209"
       inkscape:connector-curvature="0"
       style="fill:none;fill-opacity:1;stroke:#ff0000;stroke-width:0.37795275;stroke-linecap:round;stroke-linejoin:round;stroke-miterlimit:10;stroke-dasharray:none;stroke-opacity:1" /><path
       clip-path="url(#SVGID_2_)"
       stroke-miterlimit="10"
       d="m 704.431,61.38 c -2.634,0 -4.77,2.135 -4.771,4.769 -10e-4,2.634 2.135,4.771 4.769,4.771 2.634,0 4.77,-2.135 4.771,-4.769 10e-4,-2.634 -2.135,-4.771 -4.769,-4.771"
       id="path211"
       inkscape:connector-curvature="0"
       style="fill:none;fill-opacity:1;stroke:#ff0000;stroke-width:0.37795275;stroke-linecap:round;stroke-linejoin:round;stroke-miterlimit:10;stroke-dasharray:none;stroke-opacity:1" /><path
       clip-path="url(#SVGID_2_)"
       stroke-miterlimit="10"
       d="m 1245.692,83.16 c -6.214,-10e-4 -11.251,5.034 -11.253,11.248 -10e-4,6.213 5.035,11.251 11.248,11.252 6.214,0.001 11.251,-5.035 11.252,-11.248 0,-6.213 -5.034,-11.251 -11.247,-11.252"
       id="path213"
       inkscape:connector-curvature="0"
       style="fill:none;fill-opacity:1;stroke:#ff0000;stroke-width:0.37795275;stroke-linecap:round;stroke-linejoin:round;stroke-miterlimit:10;stroke-dasharray:none;stroke-opacity:1" /><line
       clip-path="url(#SVGID_2_)"
       stroke-miterlimit="10"
       x1="1288.26"
       y1="136.98"
       x2="1140.84"
       y2="136.98"
       id="line215"
       style="fill:none;fill-opacity:1;stroke:#ff0000;stroke-width:0.37795275;stroke-linecap:round;stroke-linejoin:round;stroke-miterlimit:10;stroke-dasharray:none;stroke-opacity:1" /><polyline
       clip-path="url(#SVGID_2_)"
       stroke-miterlimit="10"
       points="   1140.84,52.02 1288.26,52.02 1288.26,136.98  "
       id="polyline217"
       style="fill:none;fill-opacity:1;stroke:#ff0000;stroke-width:0.37795275;stroke-linecap:round;stroke-linejoin:round;stroke-miterlimit:10;stroke-dasharray:none;stroke-opacity:1" /><path
       clip-path="url(#SVGID_2_)"
       stroke-miterlimit="10"
       d="m 1262.971,104.58 c -2.634,0 -4.771,2.135 -4.771,4.769 -10e-4,2.634 2.135,4.771 4.769,4.771 2.635,0 4.771,-2.135 4.771,-4.769 0,-2.634 -2.135,-4.77 -4.769,-4.771"
       id="path219"
       inkscape:connector-curvature="0"
       style="fill:none;fill-opacity:1;stroke:#ff0000;stroke-width:0.37795275;stroke-linecap:round;stroke-linejoin:round;stroke-miterlimit:10;stroke-dasharray:none;stroke-opacity:1" /><path
       clip-path="url(#SVGID_2_)"
       stroke-miterlimit="10"
       d="m 1263.331,69.3 c -2.635,0 -4.771,2.135 -4.771,4.77 -10e-4,2.634 2.134,4.771 4.769,4.771 2.635,0.001 4.771,-2.134 4.771,-4.769 0,-2.635 -2.134,-4.771 -4.769,-4.772"
       id="path221"
       inkscape:connector-curvature="0"
       style="fill:none;fill-opacity:1;stroke:#ff0000;stroke-width:0.37795275;stroke-linecap:round;stroke-linejoin:round;stroke-miterlimit:10;stroke-dasharray:none;stroke-opacity:1" /><path
       clip-path="url(#SVGID_2_)"
       stroke-miterlimit="10"
       d="m 1228.591,74.88 c -2.634,0 -4.771,2.135 -4.771,4.769 -10e-4,2.634 2.135,4.771 4.769,4.771 2.635,0 4.771,-2.135 4.771,-4.769 0,-2.634 -2.134,-4.771 -4.769,-4.771"
       id="path223"
       inkscape:connector-curvature="0"
       style="fill:none;fill-opacity:1;stroke:#ff0000;stroke-width:0.37795275;stroke-linecap:round;stroke-linejoin:round;stroke-miterlimit:10;stroke-dasharray:none;stroke-opacity:1" /><path
       clip-path="url(#SVGID_2_)"
       stroke-miterlimit="10"
       d="m 1228.23,110.16 c -2.634,0 -4.77,2.135 -4.771,4.769 -10e-4,2.634 2.135,4.77 4.769,4.771 2.635,0 4.771,-2.135 4.771,-4.77 10e-4,-2.634 -2.134,-4.769 -4.769,-4.77"
       id="path225"
       inkscape:connector-curvature="0"
       style="fill:none;fill-opacity:1;stroke:#ff0000;stroke-width:0.37795275;stroke-linecap:round;stroke-linejoin:round;stroke-miterlimit:10;stroke-dasharray:none;stroke-opacity:1" /><path
       clip-path="url(#SVGID_2_)"
       stroke-miterlimit="10"
       d="m 1181.971,61.38 c -2.634,0 -4.771,2.135 -4.771,4.769 -10e-4,2.634 2.135,4.771 4.769,4.771 2.635,0 4.771,-2.135 4.771,-4.769 0,-2.634 -2.135,-4.771 -4.769,-4.771"
       id="path227"
       inkscape:connector-curvature="0"
       style="fill:none;fill-opacity:1;stroke:#ff0000;stroke-width:0.37795275;stroke-linecap:round;stroke-linejoin:round;stroke-miterlimit:10;stroke-dasharray:none;stroke-opacity:1" /><path
       clip-path="url(#SVGID_2_)"
       stroke-miterlimit="10"
       d="m 1181.971,118.08 c -2.634,0 -4.771,2.135 -4.771,4.769 -10e-4,2.634 2.135,4.771 4.769,4.771 2.635,0 4.771,-2.135 4.771,-4.769 0,-2.635 -2.135,-4.77 -4.769,-4.771"
       id="path229"
       inkscape:connector-curvature="0"
       style="fill:none;fill-opacity:1;stroke:#ff0000;stroke-width:0.37795275;stroke-linecap:round;stroke-linejoin:round;stroke-miterlimit:10;stroke-dasharray:none;stroke-opacity:1" /><line
       clip-path="url(#SVGID_2_)"
       stroke-miterlimit="10"
       x1="1140.84"
       y1="52.02"
       x2="1140.84"
       y2="136.98"
       id="line231"
       style="fill:none;fill-opacity:1;stroke:#ff0000;stroke-width:0.37795275;stroke-linecap:round;stroke-linejoin:round;stroke-miterlimit:10;stroke-dasharray:none;stroke-opacity:1" /><polyline
       clip-path="url(#SVGID_2_)"
       stroke-miterlimit="10"
       points="   919.8,136.98 1139.4,136.98 1139.4,52.02 473.4,52.02  "
       id="polyline233"
       style="fill:none;fill-opacity:1;stroke:#ff0000;stroke-width:0.37795275;stroke-linecap:round;stroke-linejoin:round;stroke-miterlimit:10;stroke-dasharray:none;stroke-opacity:1" /><path
       clip-path="url(#SVGID_2_)"
       stroke-miterlimit="10"
       d="m 960.391,69.84 c -2.634,0 -4.771,2.135 -4.771,4.769 -10e-4,2.634 2.135,4.771 4.769,4.771 2.635,0 4.771,-2.135 4.771,-4.769 0,-2.634 -2.135,-4.771 -4.769,-4.771"
       id="path235"
       inkscape:connector-curvature="0"
       style="fill:none;fill-opacity:1;stroke:#ff0000;stroke-width:0.37795275;stroke-linecap:round;stroke-linejoin:round;stroke-miterlimit:10;stroke-dasharray:none;stroke-opacity:1" /><path
       clip-path="url(#SVGID_2_)"
       stroke-miterlimit="10"
       d="m 960.391,109.62 c -2.634,0 -4.771,2.135 -4.771,4.769 -10e-4,2.634 2.135,4.771 4.769,4.771 2.635,0 4.771,-2.135 4.771,-4.769 0,-2.635 -2.135,-4.77 -4.769,-4.771"
       id="path237"
       inkscape:connector-curvature="0"
       style="fill:none;fill-opacity:1;stroke:#ff0000;stroke-width:0.37795275;stroke-linecap:round;stroke-linejoin:round;stroke-miterlimit:10;stroke-dasharray:none;stroke-opacity:1" /><path
       clip-path="url(#SVGID_2_)"
       stroke-miterlimit="10"
       d="m 1030.951,118.08 c -2.635,0 -4.771,2.135 -4.771,4.769 0,2.634 2.135,4.771 4.77,4.771 2.634,0 4.771,-2.135 4.771,-4.769 0,-2.635 -2.136,-4.77 -4.77,-4.771"
       id="path239"
       inkscape:connector-curvature="0"
       style="fill:none;fill-opacity:1;stroke:#ff0000;stroke-width:0.37795275;stroke-linecap:round;stroke-linejoin:round;stroke-miterlimit:10;stroke-dasharray:none;stroke-opacity:1" /><path
       clip-path="url(#SVGID_2_)"
       stroke-miterlimit="10"
       d="m 1030.951,61.38 c -2.635,0 -4.771,2.135 -4.771,4.769 0,2.634 2.135,4.771 4.77,4.771 2.634,0 4.771,-2.135 4.771,-4.769 0,-2.634 -2.136,-4.771 -4.77,-4.771"
       id="path241"
       inkscape:connector-curvature="0"
       style="fill:none;fill-opacity:1;stroke:#ff0000;stroke-width:0.37795275;stroke-linecap:round;stroke-linejoin:round;stroke-miterlimit:10;stroke-dasharray:none;stroke-opacity:1" /><path
       clip-path="url(#SVGID_2_)"
       stroke-miterlimit="10"
       d="m 1104.571,61.38 c -2.635,0 -4.771,2.135 -4.771,4.769 0,2.634 2.135,4.771 4.77,4.771 2.634,0 4.771,-2.135 4.771,-4.769 0,-2.634 -2.136,-4.771 -4.77,-4.771"
       id="path243"
       inkscape:connector-curvature="0"
       style="fill:none;fill-opacity:1;stroke:#ff0000;stroke-width:0.37795275;stroke-linecap:round;stroke-linejoin:round;stroke-miterlimit:10;stroke-dasharray:none;stroke-opacity:1" /><path
       clip-path="url(#SVGID_2_)"
       stroke-miterlimit="10"
       d="m 1104.571,118.08 c -2.635,0 -4.771,2.135 -4.771,4.769 0,2.634 2.135,4.771 4.77,4.771 2.634,0 4.771,-2.135 4.771,-4.769 0,-2.635 -2.136,-4.77 -4.77,-4.771"
       id="path245"
       inkscape:connector-curvature="0"
       style="fill:none;fill-opacity:1;stroke:#ff0000;stroke-width:0.37795275;stroke-linecap:round;stroke-linejoin:round;stroke-miterlimit:10;stroke-dasharray:none;stroke-opacity:1" /><path
       clip-path="url(#SVGID_2_)"
       stroke-miterlimit="10"
       d="m 908.371,61.38 c -2.635,0 -4.771,2.135 -4.771,4.769 0,2.634 2.135,4.771 4.77,4.771 2.635,0 4.771,-2.135 4.771,-4.769 0,-2.634 -2.136,-4.771 -4.77,-4.771"
       id="path247"
       inkscape:connector-curvature="0"
       style="fill:none;fill-opacity:1;stroke:#ff0000;stroke-width:0.37795275;stroke-linecap:round;stroke-linejoin:round;stroke-miterlimit:10;stroke-dasharray:none;stroke-opacity:1" /><line
       clip-path="url(#SVGID_2_)"
       stroke-miterlimit="10"
       x1="919.79999"
       y1="136.98"
       x2="919.79999"
       y2="533.88"
       id="line249"
       style="fill:none;fill-opacity:1;stroke:#ff0000;stroke-width:0.37795275;stroke-linecap:round;stroke-linejoin:round;stroke-miterlimit:10;stroke-dasharray:none;stroke-opacity:1" /><path
       clip-path="url(#SVGID_2_)"
       stroke-miterlimit="10"
       d="m 366.928,587.7 c 6.213,10e-4 11.251,-5.035 11.252,-11.248 10e-4,-6.213 -5.035,-11.251 -11.248,-11.252 -6.213,-0.001 -11.251,5.034 -11.252,11.248 -0.001,6.213 5.035,11.251 11.248,11.252"
       id="path251"
       inkscape:connector-curvature="0"
       style="fill:none;fill-opacity:1;stroke:#ff0000;stroke-width:0.37795275;stroke-linecap:round;stroke-linejoin:round;stroke-miterlimit:10;stroke-dasharray:none;stroke-opacity:1" /><line
       clip-path="url(#SVGID_2_)"
       stroke-miterlimit="10"
       x1="324.54001"
       y1="618.84003"
       x2="324.54001"
       y2="533.88"
       id="line253"
       style="fill:none;fill-opacity:1;stroke:#ff0000;stroke-width:0.37795275;stroke-linecap:round;stroke-linejoin:round;stroke-miterlimit:10;stroke-dasharray:none;stroke-opacity:1" /><path
       clip-path="url(#SVGID_2_)"
       stroke-miterlimit="10"
       d="m 349.829,566.28 c 2.634,0 4.771,-2.135 4.771,-4.77 0,-2.634 -2.135,-4.77 -4.769,-4.771 -2.634,-10e-4 -4.771,2.134 -4.771,4.769 0,2.636 2.135,4.771 4.769,4.772"
       id="path255"
       inkscape:connector-curvature="0"
       style="fill:none;fill-opacity:1;stroke:#ff0000;stroke-width:0.37795275;stroke-linecap:round;stroke-linejoin:round;stroke-miterlimit:10;stroke-dasharray:none;stroke-opacity:1" /><path
       clip-path="url(#SVGID_2_)"
       stroke-miterlimit="10"
       d="m 349.469,601.561 c 2.634,0 4.77,-2.135 4.771,-4.77 0,-2.635 -2.135,-4.771 -4.77,-4.771 -2.634,0 -4.77,2.135 -4.771,4.77 -0.001,2.635 2.135,4.77 4.77,4.771"
       id="path257"
       inkscape:connector-curvature="0"
       style="fill:none;fill-opacity:1;stroke:#ff0000;stroke-width:0.37795275;stroke-linecap:round;stroke-linejoin:round;stroke-miterlimit:10;stroke-dasharray:none;stroke-opacity:1" /><path
       clip-path="url(#SVGID_2_)"
       stroke-miterlimit="10"
       d="m 384.209,595.98 c 2.634,0 4.771,-2.135 4.771,-4.77 0,-2.635 -2.135,-4.771 -4.769,-4.771 -2.634,0 -4.771,2.135 -4.771,4.77 0,2.635 2.135,4.77 4.769,4.771"
       id="path259"
       inkscape:connector-curvature="0"
       style="fill:none;fill-opacity:1;stroke:#ff0000;stroke-width:0.37795275;stroke-linecap:round;stroke-linejoin:round;stroke-miterlimit:10;stroke-dasharray:none;stroke-opacity:1" /><path
       clip-path="url(#SVGID_2_)"
       stroke-miterlimit="10"
       d="m 384.569,560.7 c 2.635,0 4.771,-2.135 4.771,-4.77 0,-2.634 -2.134,-4.77 -4.769,-4.771 -2.634,0 -4.771,2.135 -4.771,4.769 0,2.634 2.135,4.771 4.769,4.772"
       id="path261"
       inkscape:connector-curvature="0"
       style="fill:none;fill-opacity:1;stroke:#ff0000;stroke-width:0.37795275;stroke-linecap:round;stroke-linejoin:round;stroke-miterlimit:10;stroke-dasharray:none;stroke-opacity:1" /><line
       clip-path="url(#SVGID_2_)"
       stroke-miterlimit="10"
       x1="324.54001"
       y1="533.88"
       x2="693"
       y2="533.88"
       id="line263"
       style="fill:none;fill-opacity:1;stroke:#ff0000;stroke-width:0.37795275;stroke-linecap:round;stroke-linejoin:round;stroke-miterlimit:10;stroke-dasharray:none;stroke-opacity:1" /><path
       clip-path="url(#SVGID_2_)"
       stroke-miterlimit="10"
       d="m 652.409,601.02 c 2.634,10e-4 4.771,-2.134 4.771,-4.769 0,-2.635 -2.135,-4.771 -4.769,-4.771 -2.635,-10e-4 -4.771,2.134 -4.771,4.769 0,2.635 2.135,4.771 4.769,4.771"
       id="path265"
       inkscape:connector-curvature="0"
       style="fill:none;fill-opacity:1;stroke:#ff0000;stroke-width:0.37795275;stroke-linecap:round;stroke-linejoin:round;stroke-miterlimit:10;stroke-dasharray:none;stroke-opacity:1" /><path
       clip-path="url(#SVGID_2_)"
       stroke-miterlimit="10"
       d="m 652.409,561.24 c 2.634,0 4.771,-2.135 4.771,-4.77 0,-2.634 -2.135,-4.77 -4.769,-4.771 -2.635,-10e-4 -4.771,2.134 -4.771,4.769 0,2.636 2.135,4.771 4.769,4.772"
       id="path267"
       inkscape:connector-curvature="0"
       style="fill:none;fill-opacity:1;stroke:#ff0000;stroke-width:0.37795275;stroke-linecap:round;stroke-linejoin:round;stroke-miterlimit:10;stroke-dasharray:none;stroke-opacity:1" /><path
       clip-path="url(#SVGID_2_)"
       stroke-miterlimit="10"
       d="m 704.429,609.48 c 2.634,0 4.77,-2.135 4.771,-4.77 0,-2.635 -2.135,-4.771 -4.77,-4.771 -2.634,0 -4.77,2.135 -4.771,4.77 -10e-4,2.635 2.136,4.77 4.77,4.771"
       id="path269"
       inkscape:connector-curvature="0"
       style="fill:none;fill-opacity:1;stroke:#ff0000;stroke-width:0.37795275;stroke-linecap:round;stroke-linejoin:round;stroke-miterlimit:10;stroke-dasharray:none;stroke-opacity:1" /><line
       clip-path="url(#SVGID_2_)"
       stroke-miterlimit="10"
       x1="324.54001"
       y1="618.84003"
       x2="1288.26"
       y2="618.84003"
       id="line271"
       style="fill:none;fill-opacity:1;stroke:#ff0000;stroke-width:0.37795275;stroke-linecap:round;stroke-linejoin:round;stroke-miterlimit:10;stroke-dasharray:none;stroke-opacity:1" /><path
       clip-path="url(#SVGID_2_)"
       stroke-miterlimit="10"
       d="m 960.389,601.02 c 2.635,10e-4 4.771,-2.134 4.771,-4.769 0,-2.635 -2.135,-4.771 -4.77,-4.771 -2.634,-10e-4 -4.771,2.134 -4.771,4.769 0,2.635 2.136,4.771 4.77,4.771"
       id="path273"
       inkscape:connector-curvature="0"
       style="fill:none;fill-opacity:1;stroke:#ff0000;stroke-width:0.37795275;stroke-linecap:round;stroke-linejoin:round;stroke-miterlimit:10;stroke-dasharray:none;stroke-opacity:1" /><path
       clip-path="url(#SVGID_2_)"
       stroke-miterlimit="10"
       d="m 960.389,561.24 c 2.635,0 4.771,-2.135 4.771,-4.77 0,-2.634 -2.135,-4.77 -4.77,-4.771 -2.634,-10e-4 -4.771,2.134 -4.771,4.769 0,2.636 2.136,4.771 4.77,4.772"
       id="path275"
       inkscape:connector-curvature="0"
       style="fill:none;fill-opacity:1;stroke:#ff0000;stroke-width:0.37795275;stroke-linecap:round;stroke-linejoin:round;stroke-miterlimit:10;stroke-dasharray:none;stroke-opacity:1" /><path
       clip-path="url(#SVGID_2_)"
       stroke-miterlimit="10"
       d="m 908.369,609.48 c 2.635,0 4.771,-2.135 4.771,-4.77 10e-4,-2.635 -2.135,-4.771 -4.769,-4.771 -2.635,0 -4.771,2.135 -4.771,4.77 0,2.635 2.134,4.77 4.769,4.771"
       id="path277"
       inkscape:connector-curvature="0"
       style="fill:none;fill-opacity:1;stroke:#ff0000;stroke-width:0.37795275;stroke-linecap:round;stroke-linejoin:round;stroke-miterlimit:10;stroke-dasharray:none;stroke-opacity:1" /><path
       clip-path="url(#SVGID_2_)"
       stroke-miterlimit="10"
       d="m 1245.688,587.7 c 6.214,10e-4 11.251,-5.035 11.252,-11.248 0,-6.213 -5.034,-11.251 -11.247,-11.252 -6.214,-0.001 -11.251,5.034 -11.253,11.248 0,6.213 5.035,11.251 11.248,11.252"
       id="path279"
       inkscape:connector-curvature="0"
       style="fill:none;fill-opacity:1;stroke:#ff0000;stroke-width:0.37795275;stroke-linecap:round;stroke-linejoin:round;stroke-miterlimit:10;stroke-dasharray:none;stroke-opacity:1" /><polyline
       clip-path="url(#SVGID_2_)"
       stroke-miterlimit="10"
       points="   1288.26,618.84 1288.26,533.88 919.8,533.88  "
       id="polyline281"
       style="fill:none;fill-opacity:1;stroke:#ff0000;stroke-width:0.37795275;stroke-linecap:round;stroke-linejoin:round;stroke-miterlimit:10;stroke-dasharray:none;stroke-opacity:1" /><path
       clip-path="url(#SVGID_2_)"
       stroke-miterlimit="10"
       d="m 1262.969,566.28 c 2.635,0 4.771,-2.135 4.771,-4.77 0,-2.634 -2.135,-4.77 -4.77,-4.771 -2.634,-10e-4 -4.771,2.134 -4.771,4.769 0,2.636 2.136,4.771 4.77,4.772"
       id="path283"
       inkscape:connector-curvature="0"
       style="fill:none;fill-opacity:1;stroke:#ff0000;stroke-width:0.37795275;stroke-linecap:round;stroke-linejoin:round;stroke-miterlimit:10;stroke-dasharray:none;stroke-opacity:1" /><path
       clip-path="url(#SVGID_2_)"
       stroke-miterlimit="10"
       d="m 1263.329,601.561 c 2.635,0 4.771,-2.135 4.771,-4.77 0,-2.635 -2.134,-4.771 -4.769,-4.771 -2.635,0 -4.771,2.135 -4.771,4.77 0,2.634 2.134,4.77 4.769,4.771"
       id="path285"
       inkscape:connector-curvature="0"
       style="fill:none;fill-opacity:1;stroke:#ff0000;stroke-width:0.37795275;stroke-linecap:round;stroke-linejoin:round;stroke-miterlimit:10;stroke-dasharray:none;stroke-opacity:1" /><path
       clip-path="url(#SVGID_2_)"
       stroke-miterlimit="10"
       d="m 1228.589,595.98 c 2.635,0 4.771,-2.135 4.771,-4.77 0,-2.635 -2.135,-4.771 -4.77,-4.771 -2.634,0 -4.771,2.135 -4.771,4.77 0,2.635 2.136,4.77 4.77,4.771"
       id="path287"
       inkscape:connector-curvature="0"
       style="fill:none;fill-opacity:1;stroke:#ff0000;stroke-width:0.37795275;stroke-linecap:round;stroke-linejoin:round;stroke-miterlimit:10;stroke-dasharray:none;stroke-opacity:1" /><path
       clip-path="url(#SVGID_2_)"
       stroke-miterlimit="10"
       d="m 1228.229,560.7 c 2.635,0 4.771,-2.135 4.771,-4.77 0,-2.634 -2.135,-4.77 -4.77,-4.771 -2.634,0 -4.77,2.135 -4.771,4.769 -10e-4,2.634 2.136,4.771 4.77,4.772"
       id="path289"
       inkscape:connector-curvature="0"
       style="fill:none;fill-opacity:1;stroke:#ff0000;stroke-width:0.37795275;stroke-linecap:round;stroke-linejoin:round;stroke-miterlimit:10;stroke-dasharray:none;stroke-opacity:1" /><flowRoot
       xml:space="preserve"
       id="flowRoot4794"
       style="font-style:normal;font-weight:normal;font-size:40px;line-height:1.25;font-family:sans-serif;letter-spacing:0px;word-spacing:0px;fill:none;fill-opacity:1;stroke:#000000;stroke-width:0.37795275;stroke-miterlimit:4;stroke-dasharray:none;stroke-opacity:1"
       transform="translate(1.3372642,64.188679)"><flowRegion
         id="flowRegion4796"
         style="fill:none;stroke:#000000;stroke-width:0.37795275;stroke-miterlimit:4;stroke-dasharray:none;stroke-opacity:1"><rect
           id="rect4798"
           width="151.11087"
           height="46.804253"
           x="105.64387"
           y="419.90094"
           style="fill:none;stroke:#000000;stroke-width:0.37795275;stroke-miterlimit:4;stroke-dasharray:none;stroke-opacity:1" /></flowRegion><flowPara
         id="flowPara4800">MOHNE</flowPara></flowRoot></g></svg>